<svg width="20" height="18" viewBox="0 0 20 18" fill="none" xmlns="http://www.w3.org/2000/svg">
<path d="M1.49316 6.36806V6.37826C1.49315 6.93568 1.49313 7.73662 1.84578 8.72873C2.19955 9.724 2.88929 10.8643 4.19656 12.1716C6.21425 14.1893 8.4235 15.8017 9.25996 16.3886C9.70594 16.7014 10.2954 16.7014 10.7413 16.3884C11.5776 15.8014 13.7861 14.1892 15.8037 12.1716C17.1109 10.8643 17.8007 9.724 18.1544 8.72873C18.5071 7.73663 18.5071 6.93568 18.507 6.37826V6.36806C18.507 3.81629 16.7611 1.61111 14.0626 1.61111C12.8017 1.61111 11.826 2.20271 11.1026 2.94974C10.6558 3.41125 10.293 3.94345 10.0001 4.46148C9.70728 3.94345 9.34445 3.41125 8.89758 2.94974C8.17424 2.20271 7.19856 1.61111 5.93761 1.61111C3.23911 1.61111 1.49316 3.81629 1.49316 6.36806Z" stroke="#CCCCCC" stroke-width="1.38889"/>
</svg>
